<svg width="80" height="66" viewBox="0 0 80 66" fill="none" xmlns="http://www.w3.org/2000/svg">
<path d="M0 10.2143H18.7V15.7143H0V10.2143ZM0 0H18.7V5.5H0V0ZM33.55 20.35H0V25.85H32.2929C35.8286 25.85 44.0786 25.9286 47.1429 30.8786V27.8143C45.65 22.9429 41.25 20.35 33.55 20.35ZM33.6286 30.5643H0V36.0643H32.2929C40.15 36.0643 45.1 36.3786 47.1429 37.4786V35.0429C45.5714 31.1929 38.9714 30.5643 33.6286 30.5643ZM33.55 56.4929H0V50.9929H32.2929C35.8286 50.9929 44.0786 50.9143 47.1429 45.9643V49.0286C45.65 53.9 41.25 56.4929 33.55 56.4929ZM33.6286 46.2786H0V40.7786H32.2929C40.15 40.7786 45.1 40.4643 47.1429 39.3643V41.8C45.5714 45.65 38.9714 46.2786 33.6286 46.2786ZM55.3143 66H79.9857V62.6214H56.0214C53.9 62.6214 48.8714 62.5429 47.0643 59.6357V61.5214C47.9286 64.4286 50.6 66 55.3143 66ZM55.2357 59.7929H79.9071V56.4143H56.0214C51.2286 56.4143 48.2429 56.2571 47.0643 55.55V57.0429C48.0071 59.4 52.0143 59.7929 55.2357 59.7929Z" fill="white"/>
</svg>
