<svg width="25" height="36" viewBox="0 0 25 36" fill="none" xmlns="http://www.w3.org/2000/svg">
<path d="M20.4487 9.54324C19.3984 9.54324 18.4399 9.94417 17.7182 10.6007C16.9965 9.94417 16.038 9.54324 14.9878 9.54324C13.9366 9.54324 12.9772 9.94435 12.255 10.6011C11.5333 9.94435 10.5748 9.54324 9.52444 9.54324C9.03269 9.54324 8.56116 9.63106 8.12458 9.79178V4.06282C8.12475 1.82261 6.30285 0 4.06353 0C1.82297 0 0 1.82261 0 4.06282V23.7466C0 30.5033 5.49728 36 12.2545 36C19.0122 36 24.51 30.5033 24.51 23.7466V13.6045C24.51 11.365 22.6881 9.54324 20.4487 9.54324ZM21.849 23.7466C21.849 29.0358 17.5449 33.339 12.2545 33.339C6.96456 33.339 2.661 29.0358 2.661 23.7466V4.06282C2.661 3.28989 3.29024 2.661 4.06353 2.661C4.83558 2.661 5.46375 3.28989 5.46375 4.06282V13.6043V16.5227C5.46375 17.2575 6.05946 17.8532 6.79425 17.8532C7.52904 17.8532 8.12475 17.2575 8.12475 16.5227V13.6045C8.12475 12.8324 8.75257 12.2042 9.52462 12.2042C10.2963 12.2042 10.9241 12.8324 10.9241 13.6045V16.5229C10.9241 17.2577 11.5198 17.8534 12.2546 17.8534C12.9894 17.8534 13.5851 17.2577 13.5851 16.5229V13.6045C13.5851 12.8324 14.2145 12.2042 14.988 12.2042C15.7599 12.2042 16.3879 12.8324 16.3879 13.6045V16.5229C16.3879 17.2577 16.9836 17.8534 17.7184 17.8534C18.4532 17.8534 19.0489 17.2577 19.0489 16.5229V13.6045C19.0489 12.8324 19.6769 12.2042 20.4491 12.2042C21.2211 12.2042 21.8493 12.8324 21.8493 13.6045V23.7466H21.849Z" fill="white"/>
</svg>
