<svg width="84" height="84" viewBox="0 0 84 84" fill="none" xmlns="http://www.w3.org/2000/svg">
<circle cx="42" cy="42" r="42" fill="#147CF1"/>
<path fill-rule="evenodd" clip-rule="evenodd" d="M48.7 26H36.3C30.1 26 27 29.2 27 35.6V56.4C27 57.28 27.6975 58 28.55 58H48.7C54.9 58 58 54.8 58 48.4V35.6C58 29.2 54.9 26 48.7 26ZM50.2497 36.7997H34.7497C34.1142 36.7997 33.5872 37.3437 33.5872 37.9997C33.5872 38.6557 34.1142 39.1997 34.7497 39.1997H50.2497C50.8852 39.1997 51.4122 38.6557 51.4122 37.9997C51.4122 37.3437 50.8852 36.7997 50.2497 36.7997ZM34.7497 44.7997H45.5997C46.2352 44.7997 46.7622 45.3437 46.7622 45.9997C46.7622 46.6557 46.2352 47.1997 45.5997 47.1997H34.7497C34.1142 47.1997 33.5872 46.6557 33.5872 45.9997C33.5872 45.3437 34.1142 44.7997 34.7497 44.7997Z" fill="white"/>
</svg>
