<svg width="800" height="800" viewBox="0 0 800 800" fill="none" xmlns="http://www.w3.org/2000/svg">
<path d="M670.251 185.975H562.176V240.975H670.251V185.975Z" fill="white"/>
<path d="M670.251 273.5H562.176V328.5H670.251V273.5Z" fill="white"/>
<path d="M670.251 361.025H562.176V416.025H670.251V361.025Z" fill="white"/>
<path d="M670.251 448.55H562.176V503.55H670.251V448.55Z" fill="white"/>
<path d="M670.251 536.075H562.176V591.075H670.251V536.075Z" fill="white"/>
<path fill-rule="evenodd" clip-rule="evenodd" d="M719.525 110.125H466.275V50.45L50 114.7V677.875L466.275 749.575V661.125H719.525C727.195 661.514 734.707 658.849 740.417 653.715C746.128 648.58 749.574 641.393 750 633.725V137.5C749.567 129.837 746.119 122.656 740.409 117.527C734.699 112.397 727.191 109.736 719.525 110.125ZM723.525 638.275H465.425L465 591.05H527.175V536.05H464.525L464.225 503.55H527.175V448.55H463.75L463.45 416.05H527.175V361.05H463.25V328.55H527.175V273.55H463.25V241.05H527.175V186.05H463.25V136.05H723.525V638.275ZM158.674 266.825L212.324 263.75L246.049 356.475L285.899 259.925L339.549 256.85L274.399 388.5L339.549 520.475L282.824 516.65L244.524 416.05L206.199 512.825L154.074 508.225L214.624 391.65L158.674 266.825Z" fill="white"/>
</svg>
