<svg width="800" height="800" viewBox="0 0 800 800" fill="none" xmlns="http://www.w3.org/2000/svg">
<g clip-path="url(#clip0_380_1740)">
<path fill-rule="evenodd" clip-rule="evenodd" d="M92.3 406.675C93.3 458.3 99.5 506.225 110.925 550.425C122.325 594.6 139.925 633.1 163.8 665.875C187.625 698.625 218.425 724.45 256.15 743.325C293.9 762.2 340.075 771.625 394.65 771.625C475.15 771.625 541.9 750.525 595.05 708.325C648.175 666.075 681.2 602.825 694.1 518.4H723.9C712.975 607.775 677.725 677.025 618.15 726.2C558.55 775.35 485.05 799.95 397.65 799.95C338.075 800.95 287.15 791.5 244.975 771.625C202.725 751.775 168.225 723.7 141.425 687.45C114.6 651.2 94.75 608.5 81.85 559.35C68.95 510.2 62.5 457.35 62.5 400.7C62.5 337.15 71.925 280.55 90.8 230.9C109.675 181.25 134.5 139.25 165.3 105C196 70.75 231.75 44.75 272.5 26.85C313.25 8.95 354.95 0 397.65 0C457.225 0 508.65 11.425 551.825 34.25C595.025 57.1 630.275 87.4 657.575 125.125C684.9 162.875 704.75 206.075 717.175 254.725C729.575 303.35 734.8 353.975 732.8 406.65H92.325L92.3 406.675ZM703.05 376.875C703.05 330.2 696.55 285.75 683.675 243.55C670.775 201.35 651.675 164.35 626.325 132.55C601 100.8 569.475 75.725 531.725 57.35C493.975 38.975 450.275 29.8 400.625 29.8C358.875 29.8 319.925 37.725 283.675 53.625C247.425 69.525 215.675 92.625 188.35 122.875C161.05 153.175 138.95 189.675 122.05 232.375C105.175 275.075 95.25 323.25 92.3 376.875H703.05Z" fill="white"/>
</g>
<defs>
<clipPath id="clip0_380_1740">
<rect width="800" height="800" fill="white"/>
</clipPath>
</defs>
</svg>
