<svg width="47" height="66" viewBox="0 0 47 66" fill="none" xmlns="http://www.w3.org/2000/svg">
<path d="M41.7021 23.1C43.1139 21.8656 44.2456 20.3437 45.0213 18.6363C45.7971 16.9289 46.1989 15.0754 46.2 13.2C46.2 5.92185 40.2781 0 33 0H13.2C5.92185 0 0 5.92185 0 13.2C0.00105942 15.0754 0.402919 16.9289 1.17865 18.6363C1.95439 20.3437 3.08608 21.8656 4.4979 23.1C1.74735 25.5205 0 29.0565 0 33C0 36.9435 1.74735 40.4795 4.4979 42.9C3.08608 44.1344 1.95439 45.6563 1.17865 47.3637C0.402919 49.0711 0.00105942 50.9246 0 52.8C0 60.0781 5.92185 66 13.2 66C20.4781 66 26.4 60.0781 26.4 52.8V44.413C28.4027 45.5832 30.6805 46.1999 33 46.2C40.2781 46.2 46.2 40.2781 46.2 33C46.1989 31.1246 45.7971 29.2711 45.0213 27.5637C44.2456 25.8563 43.1139 24.3344 41.7021 23.1ZM39.6 13.2C39.6 16.8399 36.6399 19.8 33 19.8H26.4V6.6H33C36.6399 6.6 39.6 9.5601 39.6 13.2ZM6.6 13.2C6.6 9.5601 9.5601 6.6 13.2 6.6H19.8V19.8H13.2C9.5601 19.8 6.6 16.8399 6.6 13.2ZM6.6 33C6.6 29.3601 9.5601 26.4 13.2 26.4H19.8V39.6H13.2C9.5601 39.6 6.6 36.6399 6.6 33ZM19.8 52.8C19.8 56.4399 16.8399 59.4 13.2 59.4C9.5601 59.4 6.6 56.4399 6.6 52.8C6.6 49.1601 9.5601 46.2 13.2 46.2H19.8V52.8ZM33 39.6C29.3601 39.6 26.4 36.6399 26.4 33C26.4 29.3601 29.3601 26.4 33 26.4C36.6399 26.4 39.6 29.3601 39.6 33C39.6 36.6399 36.6399 39.6 33 39.6Z" fill="white"/>
</svg>
