<svg width="800" height="800" viewBox="0 0 800 800" fill="none" xmlns="http://www.w3.org/2000/svg">
<path fill-rule="evenodd" clip-rule="evenodd" d="M64.634 364.67C45.122 384.182 45.122 415.818 64.634 435.33L364.67 735.365C384.182 754.878 415.818 754.878 435.33 735.365L735.365 435.33C754.878 415.818 754.878 384.182 735.365 364.67L435.33 64.634C415.818 45.122 384.182 45.122 364.67 64.634L64.634 364.67ZM273.34 156.921L303.722 126.538L384.242 207.057C389.22 205.515 394.507 204.684 399.99 204.684C429.33 204.684 453.115 228.469 453.115 257.81C453.115 263.292 452.285 268.582 450.742 273.557L531.305 354.12C536.455 352.457 541.945 351.56 547.647 351.56C576.987 351.56 600.772 375.345 600.772 404.685C600.772 434.025 576.987 457.81 547.647 457.81C518.307 457.81 494.522 434.025 494.522 404.685C494.522 396.885 496.202 389.477 499.222 382.805L424.21 307.792V501.92C441.372 510.725 453.115 528.6 453.115 549.215C453.115 578.555 429.33 602.34 399.99 602.34C370.65 602.34 346.865 578.555 346.865 549.215C346.865 526.475 361.152 507.072 381.24 499.495V307.53C361.152 299.952 346.865 280.55 346.865 257.81C346.865 249.8 348.637 242.205 351.812 235.394L273.34 156.921Z" fill="white"/>
</svg>
