<svg width="52" height="52" viewBox="0 0 52 52" fill="none" xmlns="http://www.w3.org/2000/svg">
<circle cx="26" cy="26" r="26" fill="#147CF1"/>
<path fill-rule="evenodd" clip-rule="evenodd" d="M15.5829 38H37.7C38.0448 38 38.3754 37.863 38.6192 37.6192C38.863 37.3754 39 37.0448 39 36.7C39 36.3552 38.863 36.0246 38.6192 35.7808C38.3754 35.537 38.0448 35.4 37.7 35.4H37.2149L32.8899 26.5337C32.677 26.0941 32.3445 25.7234 31.9307 25.464C31.5168 25.2046 31.0383 25.067 30.5499 25.067C30.0614 25.067 29.5829 25.2046 29.169 25.464C28.7552 25.7234 28.4228 26.0941 28.2099 26.5337L27.7289 27.5347L25.6879 23.7647C25.4651 23.3519 25.1348 23.0071 24.732 22.7668C24.3292 22.5265 23.8689 22.3996 23.3999 22.3996C22.9308 22.3996 22.4705 22.5265 22.0677 22.7668C21.6649 23.0071 21.3346 23.3519 21.1119 23.7647L14.8212 35.4H14.3C13.9552 35.4 13.6246 35.537 13.3808 35.7808C13.137 36.0246 13 36.3552 13 36.7C13 37.0448 13.137 37.3754 13.3808 37.6192C13.6246 37.863 13.9552 38 14.3 38H15.5502C15.5611 38.0001 15.572 38.0001 15.5829 38ZM30.911 12.8764C31.7662 12.305 32.7715 12 33.8 12C35.1791 12 36.5018 12.5479 37.477 13.523C38.4521 14.4982 39 15.8209 39 17.2C39 18.2285 38.695 19.2338 38.1236 20.089C37.5523 20.9441 36.7401 21.6106 35.79 22.0042C34.8398 22.3977 33.7942 22.5007 32.7855 22.3001C31.7768 22.0994 30.8503 21.6042 30.123 20.877C29.3958 20.1497 28.9006 19.2232 28.6999 18.2145C28.4993 17.2058 28.6023 16.1602 28.9958 15.21C29.3894 14.2599 30.0559 13.4477 30.911 12.8764Z" fill="white"/>
</svg>
