<svg width="58" height="66" viewBox="0 0 58 66" fill="none" xmlns="http://www.w3.org/2000/svg">
<path d="M12.6544 11.5791H29.0346V0H0L0.277169 3.10648L3.12306 35.015H29.0346V23.4362H13.7126L12.6544 11.5791Z" fill="white"/>
<path d="M15.2641 40.8047H3.64062L5.26284 58.9854L28.9815 65.5698L29.0348 65.5551V53.508L28.9841 53.5216L16.0885 50.0395L15.2641 40.8047Z" fill="white"/>
<path d="M28.9951 35.0149H43.2534L41.9093 50.032L28.9951 53.5176V65.5641L52.7327 58.9853L52.9068 57.029L55.6278 26.5453L55.9103 23.436H28.9951V35.0149Z" fill="white"/>
<path d="M28.9951 11.5508V11.5791H56.9639L57.1962 8.97649L57.7238 3.10648L58.0007 0H28.9951V11.5508Z" fill="white"/>
</svg>
