<svg width="800" height="800" viewBox="0 0 800 800" fill="none" xmlns="http://www.w3.org/2000/svg">
<path d="M302.996 325.577C295.607 309.239 292.295 290.183 297.94 272.872C303.584 255.173 316.226 240.977 328.868 227.75C364.063 192.545 407.438 166.68 441.862 130.897C460.919 111.252 476.671 87.7188 482.115 60.6828C486.59 40.8469 484.452 20.4266 480.37 0.78125C498.651 21.5922 504.68 51.3484 499.427 78.1891C493.79 108.333 477.059 134.977 457.418 157.925C441.666 176.405 423.576 192.741 404.713 207.914C382.737 225.613 361.151 244.67 347.344 269.566C335.669 289.789 332.946 314.684 340.923 336.663C353.955 374.391 384.291 402.398 400.826 437.988C382.54 421.844 364.651 405.119 347.92 387.423C330.423 368.752 313.888 348.917 302.996 325.577ZM402.184 296.012C398.879 326.937 415.016 356.109 434.276 379.061C443.607 389.367 451.582 402.009 451.968 416.403C452.36 435.65 441.474 453.55 427.462 466.186C430.773 465.802 433.105 462.881 435.829 461.327C456.834 447.906 477.055 430.986 487.363 407.847C494.171 392.092 492.616 373.419 483.673 358.83C473.166 341.716 459.362 326.545 451.195 307.877C446.715 297.375 445.16 285.123 448.857 274.038C453.723 259.064 464.223 246.809 475.31 236.112C505.841 207.137 542.793 186.514 578.191 163.958C533.459 176.792 489.312 194.492 451.582 222.306C427.659 240.198 405.491 265.091 402.184 296.012ZM614.76 442.269C635.96 443.438 656.763 458.994 660.657 480.389C664.354 498.866 655.41 517.145 643.93 531.147C625.063 553.706 599.584 569.852 573.919 583.661C571.385 585.209 569.248 587.156 567.302 589.298C601.144 580.739 634.98 567.909 662.407 545.93C677.571 533.287 690.991 516.556 693.912 496.525C696.635 479.219 689.443 461.325 676.604 449.852C661.041 435.648 639.071 430.402 618.451 433.127C606.587 434.681 593.559 437.209 585.391 447.128C595.119 445.189 604.641 441.295 614.76 442.269ZM192.53 497.886C218.004 504.694 244.262 506.641 270.323 508.392C293.66 509.947 317.002 510.339 340.537 510.142C401.213 509.175 462.28 505.086 521.791 491.862C527.429 490.503 533.655 489.53 538.718 486.03C548.635 479.608 559.519 474.55 570.221 469.494C521.791 477.273 473.169 483.892 424.162 487.002C374.568 490.112 324.582 492.058 274.798 488.753C260.601 487.394 246.012 486.611 232.788 481.163C229.673 479.803 225.393 477.086 226.948 472.995C229.868 467.744 235.702 465.219 240.759 462.495C262.155 452.381 285.491 446.744 308.248 440.131C269.152 439.544 230.254 449.461 194.476 464.828C186.499 468.72 177.554 471.83 171.138 478.444C168.604 481.161 168.604 485.837 171.524 488.166C177.36 493.417 185.135 495.75 192.53 497.886ZM507.599 551.375C473.562 557.405 439.327 563.05 404.902 564.795C367.173 567.323 329.443 565.181 292.104 561.294C284.91 560.32 277.712 559.156 271.296 555.852C267.99 553.905 264.685 550.795 264.88 546.705C265.266 540.289 270.709 535.819 274.602 531.148C262.548 535.428 250.487 539.897 240.374 547.88C236.09 551.186 231.815 556.433 232.979 562.267C234.737 569.073 241.348 573.158 247.182 576.267C261.57 583.663 277.713 586.964 293.471 589.883C333.332 596.305 373.982 596.5 414.045 593.77C456.452 590.466 498.651 583.467 539.687 571.406C528.018 566.159 516.93 560.123 507.599 551.375ZM293.855 618.673C282.965 621.783 271.877 625.481 262.934 632.669C258.452 636.17 254.957 642.206 257.099 647.845C259.823 655.039 266.63 659.325 273.041 663.009C289.773 672.156 308.635 676.43 327.11 679.741C368.93 686.348 411.907 685.378 453.529 677.991C478.226 673.32 502.927 666.708 525.874 656.405C510.899 650.18 496.316 643.175 482.315 635.009C458.004 639.288 433.493 643.764 408.599 645.319C375.737 647.847 342.476 645.123 309.607 641.041C301.826 639.289 292.104 638.513 286.852 631.703C284.135 626.058 290.355 621.973 293.855 618.673ZM559.913 743.722C587.138 738.091 614.565 731.661 639.457 719.025C647.232 714.545 656.763 709.683 659.298 700.353C660.657 691.408 651.321 686.737 644.709 683.041C648.791 687.717 651.515 694.52 647.427 699.963C640.619 709.108 628.957 712.605 618.646 716.106C586.365 725.247 552.909 728.944 519.654 732.641C431.552 740.613 342.863 742.559 254.766 735.169C225.204 732.053 195.052 728.748 166.854 718.248C162.385 716.302 155.577 714.355 155.577 708.323C157.323 703.083 162.385 700.156 166.854 697.628C187.08 687.323 209.641 681.68 232.201 680.32C225.595 676.428 217.813 676.042 210.229 676.237C191.36 676.82 172.885 681.68 154.996 687.717C139.63 693.348 123.877 699.577 111.621 710.859C106.76 715.133 102.291 723.3 107.341 729.139C115.123 737.503 127.184 739.639 137.873 742.167C197.776 752.478 258.452 758.305 319.14 760.447C399.657 762.788 480.755 759.284 559.913 743.722ZM639.652 754.228C603.087 765.897 565.165 772.312 527.43 777.566C462.28 785.733 396.541 788.261 330.999 786.32C291.132 784.766 251.265 782.042 211.974 775.423C221.115 781.648 232.398 783.591 242.902 786.511C287.054 795.848 332.363 797.598 377.293 798.958C443.215 800.127 509.148 797.598 574.109 787.289C604.841 781.852 635.763 775.234 663.374 760.841C677.773 753.256 692.362 741.581 694.879 724.666C680.298 740.22 659.298 747.42 639.652 754.228Z" fill="white"/>
</svg>
