<svg width="800" height="800" viewBox="0 0 800 800" fill="none" xmlns="http://www.w3.org/2000/svg">
<path d="M779.939 569.734C779.939 569.734 680.636 837.525 338.761 775.184C333.381 774.183 328.222 772.313 322.997 770.733C321.775 770.375 320.54 769.984 319.318 769.634C314.186 768.038 309.104 766.4 304.054 764.639C303.476 764.437 302.925 764.248 302.339 764.041C297.739 762.423 293.164 760.706 288.648 758.972C287.465 758.511 286.289 758.062 285.112 757.581C280.247 755.659 275.406 753.65 270.617 751.552C269.734 751.163 268.882 750.772 267.986 750.377C263.793 748.512 259.654 746.581 255.55 744.619C254.484 744.078 253.412 743.578 252.339 743.072C251.754 742.78 251.125 742.487 250.526 742.189C247.876 740.864 245.289 739.487 242.678 738.12C240.664 737.081 238.617 736.069 236.615 734.995C232.918 732.981 229.273 730.934 225.647 728.842C224.301 728.075 222.943 727.334 221.611 726.561C216.686 723.664 211.812 720.655 207.011 717.612C205.653 716.742 204.309 715.82 202.97 714.922C199.839 712.895 196.706 710.867 193.639 708.75C193.314 708.528 193.003 708.295 192.684 708.067C191.495 707.261 190.365 706.436 189.182 705.578C185.947 703.33 182.743 701.03 179.573 698.691C178.04 697.534 176.512 696.372 174.992 695.208C172.12 693.017 169.262 690.775 166.428 688.514C165.018 687.384 163.589 686.267 162.179 685.123C158.723 682.277 155.278 679.378 151.906 676.455C151.268 675.897 150.593 675.35 149.943 674.766C149.878 674.739 149.832 674.687 149.761 674.628C145.934 671.275 142.178 667.837 138.454 664.33C137.331 663.303 136.212 662.205 135.082 661.127C132.301 658.455 129.547 655.764 126.837 653.036C125.712 651.931 124.601 650.814 123.523 649.695C120.022 646.095 116.564 642.491 113.186 638.805C113.062 638.637 112.939 638.539 112.79 638.377C112.731 638.312 112.647 638.227 112.589 638.155C109.132 634.347 105.74 630.455 102.42 626.55C101.49 625.452 100.556 624.328 99.6387 623.217C97.1637 620.234 94.7262 617.259 92.3356 614.244C91.3418 612.989 90.3481 611.723 89.3668 610.463C86.684 606.998 84.0325 603.509 81.4653 599.961C80.984 599.298 80.4715 598.648 80.009 597.998C79.9106 597.889 79.8278 597.77 79.7622 597.661C76.7872 593.547 73.9153 589.356 71.095 585.159C70.2184 583.872 69.3934 582.547 68.5481 581.22C66.5075 578.116 64.5059 575.008 62.57 571.864C61.5575 570.253 60.595 568.636 59.62 567.016C57.859 564.08 56.1372 561.142 54.4668 558.18C53.5122 556.503 52.57 554.866 51.6465 553.144C51.1325 552.234 50.5747 551.297 50.0747 550.344C49.1965 548.756 48.4044 547.102 47.5465 545.483C46.2215 542.942 44.8762 540.389 43.5965 537.803C-10.3988 429.844 -19.2097 297.656 51.484 196.048L106.662 126.066C44.4075 246.389 72.3872 392.906 150.268 499.128C153.081 502.995 155.961 506.809 158.903 510.622C159.814 511.772 160.728 512.93 161.639 514.034C164.087 517.153 166.589 520.233 169.117 523.281C170.028 524.353 170.917 525.405 171.847 526.509C175.226 530.5 178.682 534.462 182.231 538.328C182.4 538.516 182.562 538.686 182.725 538.867C186.078 542.527 189.495 546.138 192.972 549.7C194.05 550.791 195.148 551.87 196.247 552.962C198.976 555.748 201.764 558.453 204.597 561.142C205.668 562.208 206.747 563.234 207.859 564.294C211.686 567.855 215.545 571.395 219.476 574.853C219.886 575.211 220.307 575.541 220.684 575.872C224.323 579.036 228.007 582.117 231.737 585.184C233.037 586.244 234.362 587.302 235.687 588.355C238.617 590.712 241.581 593.008 244.564 595.288C245.987 596.38 247.448 597.491 248.925 598.581C252.167 600.986 255.442 603.352 258.75 605.691C259.873 606.45 260.965 607.277 262.103 608.042C265.522 610.408 269.004 612.708 272.5 614.956C273.812 615.828 275.112 616.737 276.437 617.583C281.259 620.636 286.132 623.637 291.057 626.536C292.325 627.264 293.592 627.945 294.839 628.648C298.556 630.798 302.279 632.916 306.073 634.944C308.126 636.086 310.239 637.12 312.317 638.219C315.423 639.817 318.529 641.442 321.673 642.975C322.862 643.559 324.018 644.106 325.182 644.658C329.192 646.587 333.214 648.447 337.281 650.291C338.243 650.708 339.178 651.142 340.147 651.558C344.884 653.631 349.672 655.62 354.5 657.522C355.74 658.016 356.982 658.491 358.229 658.986C362.622 660.687 367.047 662.339 371.523 663.917C372.218 664.164 372.914 664.417 373.589 664.664C378.579 666.381 383.601 668.017 388.664 669.564C389.956 669.967 391.25 670.358 392.575 670.747C397.759 672.28 402.912 673.937 408.228 675.141C548.498 707.064 696.536 678.395 779.939 569.734ZM285.062 398.059C292.729 409.034 301.215 422.1 311.384 430.92C315.062 434.98 318.922 438.936 322.853 442.828C323.84 443.841 324.861 444.816 325.881 445.809C329.689 449.514 333.587 453.159 337.59 456.7C337.759 456.823 337.909 456.994 338.072 457.111C338.117 457.162 338.156 457.175 338.189 457.227C342.634 461.112 347.222 464.862 351.873 468.545C352.907 469.339 353.932 470.164 354.979 470.97C359.651 474.55 364.415 478.072 369.301 481.423C369.451 481.527 369.567 481.633 369.717 481.736C371.867 483.23 374.064 484.62 376.24 486.05C377.293 486.727 378.287 487.453 379.339 488.091C382.834 490.333 386.364 492.509 389.956 494.602C390.464 494.914 390.957 495.173 391.457 495.466C394.543 497.247 397.695 499.008 400.84 500.709C401.931 501.32 403.05 501.866 404.167 502.45C406.337 503.581 408.52 504.744 410.729 505.842C411.061 505.998 411.406 506.153 411.725 506.291C416.228 508.506 420.768 510.65 425.415 512.664C426.403 513.106 427.429 513.495 428.437 513.912C432.148 515.484 435.89 517.025 439.653 518.467C441.25 519.072 442.87 519.65 444.454 520.228C447.878 521.502 451.303 522.659 454.759 523.816C456.326 524.314 457.859 524.828 459.425 525.309C464.337 526.83 469.197 528.766 474.323 529.611C738.282 573.347 799.218 370.114 799.218 370.114C744.281 449.228 637.901 486.975 524.379 457.514C519.343 456.187 514.375 454.739 509.442 453.186C507.92 452.73 506.439 452.237 504.937 451.736C501.429 450.598 497.939 449.391 494.478 448.13C492.898 447.552 491.314 446.973 489.759 446.375C485.97 444.919 482.222 443.413 478.512 441.841C477.492 441.398 476.472 441.008 475.478 440.553C470.82 438.523 466.232 436.392 461.709 434.156C459.376 433.017 457.095 431.814 454.795 430.634C453.468 429.952 452.137 429.267 450.812 428.584C447.875 426.989 444.951 425.334 442.072 423.656C441.389 423.263 440.675 422.889 439.979 422.477C436.412 420.384 432.89 418.23 429.401 416.017C428.328 415.333 427.289 414.588 426.217 413.883C423.909 412.392 421.617 410.881 419.354 409.348C414.495 405.995 409.764 402.475 405.092 398.914C404.014 398.066 402.942 397.238 401.875 396.389C352.193 357.153 312.812 303.541 294.072 242.748C274.454 179.698 278.686 108.925 312.687 51.4891L270.914 110.455C219.797 184.025 222.572 282.506 262.447 360.314C269.143 373.359 276.661 386.009 285.062 398.059ZM563.281 307.041C565.457 307.853 567.628 308.573 569.829 309.319C570.792 309.614 571.753 309.945 572.722 310.231C575.828 311.209 578.914 312.344 582.125 312.947C727.881 341.108 767.406 238.152 777.933 223C743.3 272.859 685.112 284.828 613.697 267.502C608.064 266.125 601.865 264.088 596.418 262.164C589.447 259.678 582.592 256.845 575.912 253.639C563.223 247.547 551.15 240.156 539.936 231.694C476.043 183.211 436.356 90.7234 478.045 15.4047L455.484 46.5C425.348 90.8531 422.392 145.934 443.295 194.923C465.348 246.914 510.539 287.706 563.281 307.041Z" fill="white"/>
</svg>
