<svg width="66" height="66" viewBox="0 0 66 66" fill="none" xmlns="http://www.w3.org/2000/svg">
<path fill-rule="evenodd" clip-rule="evenodd" d="M50.5824 60.826C44.8239 60.826 41.1015 58.0807 39.2865 54.4903L44.3355 51.5657C45.6654 53.7371 47.3913 55.3314 50.4504 55.3314C53.0178 55.3314 54.6579 54.0468 54.6579 52.2747C54.6579 49.6083 51.1005 48.5665 48.5892 47.4907C44.1144 45.5866 41.1444 43.194 41.1444 38.1417C41.1444 33.492 44.6886 29.9481 50.2293 29.9481C54.1695 29.9481 57.0075 31.3207 59.0436 34.9078L54.2157 38.0096C53.1531 36.1055 52.0014 35.3525 50.2293 35.3525C48.411 35.3525 47.2593 36.5048 47.2593 38.0096C47.2593 39.8708 48.411 40.6236 51.0708 41.7753C56.6445 44.1645 60.8619 46.0415 60.8619 52.1861C60.8619 57.7697 56.4762 60.826 50.5824 60.826ZM36.3 51.4771C36.3 57.9022 32.3433 61.2981 26.8488 61.2981C21.8856 61.2981 18.9123 59.4 17.4504 56.1H17.4009H17.3778H17.3646L22.4102 52.5728C23.3838 54.2987 24.2616 55.5231 26.3868 55.5231C28.4262 55.5231 29.7 54.4904 29.7 51.3917V29.7H36.3V51.4771ZM0 66H66V0H0V66Z" fill="white"/>
</svg>
