<svg width="74" height="63" viewBox="0 0 74 63" fill="none" xmlns="http://www.w3.org/2000/svg">
<path fill-rule="evenodd" clip-rule="evenodd" d="M19.5666 0C14.0711 0 9.10154 1.37351 5.49451 4.72287C1.85328 8.10405 0 13.1251 0 19.5666V43.3869C0 49.8285 1.85328 54.8495 5.49451 58.2306C9.10154 61.5801 14.0711 62.9535 19.5666 62.9535H53.5955C59.0912 62.9535 64.0608 61.5801 67.6675 58.2306C71.3089 54.8495 73.1622 49.8285 73.1622 43.3869V19.5666C73.1622 13.1251 71.3089 8.10405 67.6675 4.72287C64.0608 1.37351 59.0912 0 53.5955 0H19.5666ZM61.1789 19.098C62.294 18.2362 62.4995 16.6334 61.6376 15.5181C60.776 14.4027 59.1732 14.1972 58.0577 15.0591L39.1816 29.6446C37.6499 30.8285 35.5119 30.8285 33.9799 29.6446L15.1041 15.0591C13.9887 14.1972 12.3859 14.4027 11.5241 15.5181C10.6622 16.6334 10.8677 18.2362 11.9831 19.098L30.8591 33.6839C34.2293 36.2878 38.9325 36.2878 42.3027 33.6839L61.1789 19.098Z" fill="#3192FF"/>
</svg>
