<svg width="800" height="800" viewBox="0 0 800 800" fill="none" xmlns="http://www.w3.org/2000/svg">
<g clip-path="url(#clip0_380_1706)">
<path fill-rule="evenodd" clip-rule="evenodd" d="M520 560C520 537.92 537.92 520 560 520H680C702.08 520 720 537.92 720 560V680C720 702.08 702.08 720 680 720H560C537.92 720 520 702.08 520 680V560ZM520 120C520 97.92 537.92 80 560 80H680C702.08 80 720 97.92 720 120V240C720 262.08 702.08 280 680 280H560C537.92 280 520 262.08 520 240V120ZM436.2 280C436.2 324.2 472.04 360 516.2 360H716.2C760.4 360 800 324.2 800 280V80C800 35.8 760.4 0 716.2 0H516.2C472.04 0 440 35.8 440 80V200H80V0H0V640C0 684.2 33.92 720 78.12 720H436.2C436.2 764.2 472.04 800 516.2 800H716.2C760.4 800 800 764.2 800 720V520C800 475.8 760.4 440 716.2 440H516.2C472.04 440 440 475.8 440 520V640H116.2C94.12 640 80 622.08 80 600V280H436.2Z" fill="white"/>
</g>
<defs>
<clipPath id="clip0_380_1706">
<rect width="800" height="800" fill="white"/>
</clipPath>
</defs>
</svg>
