<svg width="800" height="800" viewBox="0 0 800 800" fill="none" xmlns="http://www.w3.org/2000/svg">
<path d="M536.162 180.727C599.33 183.636 652.399 236.799 655.765 299.785C615.864 300.243 575.969 300.061 536.068 300.061C536.068 260.254 535.981 220.447 536.162 180.727Z" fill="white"/>
<path fill-rule="evenodd" clip-rule="evenodd" d="M420.92 9.23377H472.447V91.0289C512.365 91.2529 552.298 91.1235 592.227 90.9941C649.482 90.8085 706.73 90.623 763.914 91.4797C784.817 89.4802 801.176 105.745 799.09 126.648C799.892 214.978 799.761 303.331 799.63 391.697V391.702C799.509 473.174 799.388 554.656 799.998 636.141C799.803 640.094 799.776 644.14 799.748 648.217C799.648 663.077 799.546 678.359 791.274 691.122C780.083 699.247 766.047 699.614 752.6 699.966H752.597C750.101 700.031 747.626 700.096 745.192 700.21C674.598 699.86 604.004 699.891 533.365 699.923C513.063 699.932 492.757 699.941 472.447 699.941V790.824H415.925C328.567 774.889 241.099 759.821 153.638 744.755L153.632 744.754C102.425 735.933 51.2209 727.112 0.0420084 718.118C-0.0210072 576.759 2.00342e-06 435.398 0.0210072 294.063C0.0315083 223.406 0.0420084 152.755 0.0420084 82.1151C49.6252 73.5384 99.2102 64.9035 148.804 56.2671L148.806 56.2667C239.465 40.4792 330.154 24.6864 420.92 9.23377ZM472.449 118.294H772.365V672.683H472.449V599.976H690.569V563.623H472.449V518.181H690.569V481.828H472.544C472.492 472.179 472.469 462.53 472.445 452.881C472.426 444.717 472.406 436.553 472.369 428.388C508.359 439.563 549.344 439.294 581.517 417.657C616.329 397.03 634.505 357.674 637.501 318.412C605.708 318.192 573.911 318.207 542.16 318.223H542.157C534.067 318.226 525.981 318.23 517.898 318.23C517.876 308.05 517.895 297.869 517.914 287.691C517.968 258.34 518.023 229.005 517.084 199.718C502.179 202.627 487.274 205.717 472.456 208.894L472.449 118.294ZM190.628 247.313C175.289 248.68 160.113 250.033 145.814 249.348C144.731 346.411 144.905 443.562 145.719 540.633C163.75 542.097 181.777 543.612 199.799 545.177C199.719 509.638 199.799 474.106 199.893 438.567C201.095 438.607 202.301 438.648 203.51 438.689C224.867 439.422 247.079 440.184 266.602 430.213C324.68 401.756 335.041 314.333 295.866 266.798C266.818 240.522 228.232 243.961 190.628 247.313Z" fill="white"/>
<path d="M199.798 298.519C217.706 297.698 239.882 294.433 251.973 311.243C262.334 329.056 261.788 352.504 253.151 370.863C242.79 389.585 219.342 387.767 201.253 389.948C199.34 359.499 199.529 329.049 199.798 298.519Z" fill="white"/>
</svg>
