<svg width="75" height="69" viewBox="0 0 75 69" fill="none" xmlns="http://www.w3.org/2000/svg">
<circle cx="37.3724" cy="34.5431" r="6.24842" fill="white"/>
<path d="M26.8479 43.5096C18.0925 30.6823 11.5216 8.61285 19.1847 4.48641C26.8478 0.359982 41.3111 15.5104 48.8942 28.3012C56.1191 40.4876 63.1596 58.7179 55.85 63.9054C48.5404 69.0929 34.6539 54.9459 26.8479 43.5096Z" stroke="white" stroke-width="2.3579"/>
<path d="M34.6986 20.7449C50.1813 19.526 72.5965 24.7977 72.3667 33.4981C72.137 42.1986 51.8008 47.2148 36.9328 47.4347C22.7671 47.6442 3.44936 44.6889 2.58276 35.7676C1.71616 26.8464 20.895 21.8316 34.6986 20.7449Z" stroke="white" stroke-width="2.3579"/>
<path d="M24.1008 30.2083C30.4431 16.0318 45.8028 -1.12375 53.3313 3.24339C60.8598 7.61054 55.5277 27.8662 48.6026 41.0248C42.0047 53.5618 30.1615 69.1069 21.9142 65.5966C13.6669 62.0863 18.4463 42.8475 24.1008 30.2083Z" stroke="white" stroke-width="2.3579"/>
</svg>
