<svg width="71" height="67" viewBox="0 0 71 67" fill="none" xmlns="http://www.w3.org/2000/svg">
<path d="M49.1954 46.2802C51.8156 46.0135 53.8033 43.7929 53.7129 41.1278C53.6228 38.4631 51.3638 36.3312 48.6532 36.3312H48.4727C45.6715 36.42 43.5034 38.7296 43.5938 41.4832C43.6842 42.8157 44.2261 43.9704 45.0393 44.7698C41.9674 50.7215 37.2691 55.074 30.2219 58.7161C25.4331 61.2032 20.4641 62.0917 15.4949 61.47C11.4291 60.937 8.26679 59.1606 6.27879 56.2287C3.38774 51.8762 3.11678 47.1682 5.55629 42.4604C7.27305 39.0848 9.98326 36.5975 11.7 35.3538C11.3387 34.1991 10.7964 32.2449 10.5255 30.8238C-2.57542 40.1508 -1.22004 52.7647 2.75541 58.7161C5.73685 63.1576 11.7904 65.9115 18.4764 65.9115C20.2833 65.9115 22.0902 65.7335 23.8974 65.2898C35.4624 63.0689 44.2264 56.3177 49.1954 46.2802ZM65.0973 35.2653C58.2307 27.3594 48.1113 23.0069 36.5463 23.0069H35.101C34.2878 21.408 32.571 20.3418 30.6737 20.3418H30.4928C27.6921 20.4308 25.524 22.7402 25.6142 25.494C25.7046 28.1589 27.9631 30.2908 30.6737 30.2908H30.8542C32.842 30.202 34.5588 28.9583 35.2816 27.2704H36.9077C43.7746 27.2704 50.2796 29.2246 56.1527 33.0444C60.67 35.9757 63.9227 39.7956 65.7297 44.4146C67.2656 48.1454 67.1752 51.7875 65.5489 54.8965C63.0191 59.6043 58.7729 62.1804 53.171 62.1804C49.5568 62.1804 46.1237 61.1145 44.3166 60.315C43.3228 61.2032 41.5156 62.6244 40.2506 63.5131C44.136 65.2895 48.1113 66.2667 51.906 66.2667C60.5796 66.2667 66.9947 61.5585 69.4342 56.8507C72.0541 51.6985 71.8733 42.8157 65.0973 35.2653ZM19.1991 47.7899C19.2895 50.4548 21.5483 52.5864 24.2588 52.5864H24.4396C27.2403 52.4979 29.4087 50.1883 29.3183 47.4347C29.2281 44.7696 26.9691 42.6379 24.2588 42.6379H24.0782C23.8974 42.6379 23.6262 42.6379 23.4459 42.7264C19.7413 36.6862 18.2054 30.113 18.7476 23.0067C19.1087 17.6768 20.9159 13.0576 24.0782 9.23786C26.6981 5.95115 31.7578 4.35225 35.1914 4.26365C44.7683 4.08586 48.8338 15.8113 49.105 20.5193C50.2796 20.7858 52.2674 21.4077 53.6228 21.852C52.5383 7.46172 43.5034 0 34.83 0C26.6981 0 19.1991 5.77393 16.2174 14.3015C12.0614 25.6715 14.7719 36.5975 19.8315 45.214C19.3799 45.8358 19.1087 46.8127 19.1991 47.7899Z" fill="white"/>
</svg>
