<svg width="800" height="800" viewBox="0 0 800 800" fill="none" xmlns="http://www.w3.org/2000/svg">
<g clip-path="url(#clip0_380_1694)">
<path d="M640 520C588 520 544 552 528 600H360C360 572 352 548 340 528L624 236C636 236 648 240 660 240C716 240 760 196 760 140C760 84 716 40 660 40C604 40 560 84 560 140C560 152 564 168 568 180L288 468C264 448 232 440 200 440V272C248 256 280 212 280 160C280 92 228 40 160 40C92 40 40 92 40 160C40 212 72 256 120 272V460C72 488 40 540 40 596C40 684 112 756 200 756C260 756 312 724 336 676H524C540 720 584 756 636 756C700 756 756 704 756 636C760 572 704 520 640 520Z" fill="white"/>
</g>
<defs>
<clipPath id="clip0_380_1694">
<rect width="800" height="800" fill="white"/>
</clipPath>
</defs>
</svg>
