<svg width="800" height="800" viewBox="0 0 800 800" fill="none" xmlns="http://www.w3.org/2000/svg">
<path d="M404.274 467.5C392.249 473.025 379.074 480.225 352.699 494.7C342.699 500.325 332.249 505.95 322.524 511.25C321.849 510.575 321.149 509.725 320.474 509.025C268.299 453.275 171.799 413.9 175.899 339.025C177.424 311.75 186.799 240.15 361.224 153.2C504.774 82.45 618.999 102.05 638.724 145.525C667.074 207.5 577.499 322.825 429.249 339.55C412.842 342.878 395.896 342.476 379.664 338.374C363.433 334.272 348.331 326.574 335.474 315.85C327.624 307.325 326.449 306.825 323.549 308.525C318.774 311.025 321.849 318.75 323.549 323.175C329.204 333.414 336.855 342.415 346.048 349.646C355.242 356.877 365.792 362.191 377.074 365.275C435.415 377.885 496.241 371.86 550.974 348.05C640.824 313.275 710.974 216.6 690.424 135.55C669.799 53.375 533.399 26.275 404.349 72.125C323.531 99.3598 248.863 142.233 184.599 198.3C113.499 264.8 102.249 322.6 106.849 346.8C123.399 432.725 241.849 488.65 289.349 530.075C286.849 531.45 284.749 532.575 282.874 533.65C259.174 545.425 168.824 592.65 146.299 642.6C120.724 699.2 150.399 739.775 169.999 745.225C199.537 752.3 230.546 749.974 258.697 738.572C286.848 727.17 310.736 707.261 327.024 681.625C340.856 660.367 349.35 636.083 351.783 610.838C354.216 585.593 350.517 560.134 340.999 536.625C346.614 532.146 352.603 528.157 358.899 524.7C370.999 517.55 382.524 510.5 392.749 505.05C427.759 488.651 465.965 480.208 504.624 480.325C585.774 489.875 601.799 540.5 598.724 561.825C597.286 569.391 594.243 576.561 589.802 582.853C585.36 589.144 579.622 594.412 572.974 598.3C567.349 601.875 565.474 603.075 565.974 605.625C566.649 609.375 569.374 609.2 574.149 608.525C586.342 604.672 597.083 597.22 604.963 587.15C612.842 577.08 617.491 564.861 618.299 552.1C620.799 502.1 573.124 447.25 488.724 447.75C463.452 447.793 438.433 452.779 415.074 462.425C411.324 463.975 407.683 465.642 404.149 467.425L404.274 467.5ZM283.649 663.475C256.699 692.8 219.199 703.875 202.999 694.5C185.499 684.5 192.424 641.125 225.499 610.1C245.088 592.45 266.261 576.642 288.749 562.875C292.674 560.375 298.474 557.075 305.449 552.875C306.649 552.2 307.324 551.85 307.324 551.85L311.424 549.35C317.323 569.128 317.86 590.118 312.98 610.171C308.099 630.224 297.977 648.62 283.649 663.475Z" fill="white"/>
</svg>
