<svg width="52" height="52" viewBox="0 0 52 52" fill="none" xmlns="http://www.w3.org/2000/svg">
<circle cx="26" cy="26" r="26" fill="#147CF1"/>
<path d="M28.535 14.0318C29.6597 14.2301 30.4107 15.3027 30.2124 16.4275L26.8607 35.4358C26.6625 36.5605 25.5898 37.3116 24.465 37.1132C23.3403 36.915 22.5892 35.8423 22.7875 34.7175L26.1393 15.7093C26.3375 14.5845 27.4101 13.8334 28.535 14.0318ZM20.3796 18.2609C21.1872 19.0685 21.1872 20.3779 20.3796 21.1855L15.9926 25.5724L20.3796 29.9594C21.1872 30.767 21.1872 32.0763 20.3796 32.884C19.572 33.6916 18.2626 33.6916 17.4549 32.884L11.6057 27.0348C11.2179 26.647 11 26.1209 11 25.5724C11 25.024 11.2179 24.498 11.6057 24.1102L17.4549 18.2609C18.2626 17.4533 19.572 17.4533 20.3796 18.2609ZM35.545 18.2609L41.3943 24.1102C41.7822 24.498 42 25.024 42 25.5724C42 26.1209 41.7822 26.647 41.3943 27.0348L35.545 32.884C34.7374 33.6916 33.4281 33.6916 32.6204 32.884C31.8128 32.0763 31.8128 30.767 32.6204 29.9594L37.0074 25.5724L32.6204 21.1855C31.8128 20.3779 31.8128 19.0685 32.6204 18.2609C33.4281 17.4533 34.7374 17.4533 35.545 18.2609Z" fill="white"/>
</svg>
