<svg width="800" height="800" viewBox="0 0 800 800" fill="none" xmlns="http://www.w3.org/2000/svg">
<path d="M214.051 381.4C273.751 402.384 336.732 412.486 400.001 411.225C463.271 412.478 526.252 402.368 585.951 381.375C632.551 363.2 649.076 343 649.076 331.375V242.5C632.784 253.41 615.305 262.435 596.976 269.4C533.812 292.018 467.083 303.044 400.001 301.95C332.924 303.024 266.202 292.015 203.026 269.45C184.687 262.484 167.207 253.442 150.926 242.5V331.25C150.926 343.1 167.501 363.2 214.051 381.4Z" fill="white"/>
<path d="M214.051 549.025C235.141 557.068 256.889 563.266 279.051 567.55C318.902 575.259 359.411 579.052 400.001 578.875C440.589 579.061 481.099 575.276 520.951 567.575C543.112 563.291 564.86 557.093 585.951 549.05C632.551 530.875 649.076 510.675 649.076 499.05V414.3C635.609 422.404 621.454 429.305 606.776 434.925C540.42 458.419 470.381 469.792 400.001 468.5C329.613 469.751 259.574 458.337 193.226 434.8C178.554 429.166 164.4 422.265 150.926 414.175V499C150.926 510.65 167.501 530.775 214.051 549.025Z" fill="white"/>
<path d="M400.001 750C537.501 750 649.076 706.4 649.076 652.65V581.725C636.825 589.11 623.99 595.481 610.701 600.775L606.776 602.35C540.433 625.914 470.393 637.354 400.001 636.125C329.606 637.39 259.56 625.948 193.226 602.35C191.876 601.85 190.576 601.275 189.301 600.775C176.011 595.481 163.177 589.11 150.926 581.725V652.65C150.926 706.4 262.501 750 400.001 750Z" fill="white"/>
<path d="M400.001 244.7C537.561 244.7 649.076 201.115 649.076 147.35C649.076 93.5851 537.561 50 400.001 50C262.44 50 150.926 93.5851 150.926 147.35C150.926 201.115 262.44 244.7 400.001 244.7Z" fill="white"/>
</svg>
