<svg width="800" height="800" viewBox="0 0 800 800" fill="none" xmlns="http://www.w3.org/2000/svg">
<path d="M122.1 58.35C90.4754 58.475 64.8754 84.075 64.7754 115.7V634.55C64.8754 666.15 90.4754 691.75 122.1 691.85H416.325C414.925 675.075 414.125 655.55 414.125 635.825C414.125 625.8 414.325 615.8 414.75 605.875L414.7 607.3C414.5 605.375 414.35 602.9 414.2 601.05C410.384 576.083 405.459 551.317 399.425 526.75C396.45 514.15 392.5 503.15 387.475 492.75L387.9 493.725C385.9 490.575 384.725 486.75 384.725 482.65C384.725 481.8 384.775 480.95 384.875 480.125V480.225C384.95 475.9 385.375 471.75 386.1 467.7L386.025 468.175C388.225 455.1 390.775 444.1 393.875 433.325L393.325 435.525L400.1 434.65C399.575 433.55 399.65 432.625 399.125 431.625L397.85 419.725C401.584 407.208 405.559 394.775 409.775 382.425L416.025 381.825C415.775 381.325 415.725 380.65 415.45 380.175L414.1 370.3C439.25 252.025 491.775 148.7 564.825 63.5L564.05 64.425C566.1 62.275 568.2 60.425 570.225 58.375L122.1 58.35ZM702.35 41.375C670.1 12.625 631.125 24.2 592.6 58.375C586.667 63.6917 580.967 69.2667 575.5 75.1C505.5 157.45 454.425 258.075 430.3 368.775L429.475 373.275C436 387.05 441.825 403.3 446.075 420.175L446.475 422.05C448.392 429.317 450.1 436.633 451.6 444C451.6 444 451 441.775 448.6 434.75L447.05 430.2C446.734 429.367 446.392 428.533 446.025 427.7C441.725 417.7 429.85 396.625 424.6 387.425C420.125 400.65 416.175 412.975 412.85 424.175C423.175 445.75 431.575 470.85 436.825 497.1L437.175 499.175C437.175 499.175 436.4 496.075 432.575 485.375C424.025 466.9 415.975 451.925 407.2 437.4L408.45 439.625C403.825 451.225 401.15 464.65 401.15 478.725C401.15 481.225 401.225 483.7 401.4 486.15L401.375 485.825C406.85 496.475 411.4 508.85 414.35 521.8L414.55 522.875C423.475 557.25 429.7 599.1 429.7 599.1L430.225 606.1C429.85 614.65 429.65 624.7 429.65 634.775C429.65 654.9 430.5 674.825 432.175 694.525L432 691.95C433.45 722.1 439.075 750.425 448.275 777.1L447.625 774.95L452.475 772.325C443.825 742.5 438.85 708.225 438.85 672.8C438.85 664.2 439.15 655.7 439.725 647.25L439.65 648.4C445.175 553.85 463.75 465.425 493.6 382.375L491.525 388.975C532.9 266.475 600.5 162.15 688.05 78.55L688.35 78.275C626.075 134.5 541.775 316.65 516.525 384.075C492.45 444.575 471.575 516.425 457.4 590.65L456.2 598.275C472.8 557.3 504.05 525.125 543.275 507.725L544.325 507.3C544.325 507.3 577.35 466.55 615.925 408.4C586.05 414.65 561.325 421.425 537.175 429.475L542.15 428.05C523.4 435.9 518.35 438.575 518.35 438.575C550.55 418.8 587.775 400.7 626.775 386.275L631.225 384.825C702.9 271.95 781 111.6 702.35 41.425V41.375Z" fill="white"/>
</svg>
