<svg width="301" height="150" viewBox="0 0 301 150" fill="none" xmlns="http://www.w3.org/2000/svg">
<path fill-rule="evenodd" clip-rule="evenodd" d="M223.467 0C197.681 0 173.928 14.5072 150.971 39.8551L150.953 39.8343L150.968 39.8155C145.767 33.6526 140.031 27.9771 133.836 22.8521C130.004 19.6115 126.12 16.6989 122.181 14.1249L92.7781 49.8985C102.097 54.8578 110.704 63.8903 119.762 74.9278L119.852 74.991C120.128 75.3268 120.404 75.6644 120.681 76.0036C107.37 92.1051 93.3007 104.181 77.5978 104.181C58.6667 104.181 47.3877 91.7065 47.3877 75.2065C47.3877 58.7065 58.6667 45.8732 77.5978 45.8732C80.8603 45.8732 84.0008 46.4106 87.0537 47.4138L117.013 10.9626C104.411 3.76787 91.2227 0 77.279 0C32.6015 0 0 31.8841 0 74.808C0 117.732 32.6015 149.217 77.279 149.217C104.739 149.217 126.022 136.344 149.775 110.678L149.775 110.678C153.249 114.708 156.958 118.517 160.881 122.086C167.099 127.884 173.388 132.755 179.818 136.7L209.102 101.071C198.821 96.4533 189.119 86.7753 179.113 75.1059C193.585 57.8628 206.042 45.8732 222.112 45.8732C241.043 45.8732 252.203 58.8659 252.203 75.2065C252.203 91.5471 241.043 104.181 222.112 104.181C219.693 104.181 217.332 103.885 215.017 103.324L185.105 139.718C197.192 146.104 209.831 149.297 223.467 149.297C268.145 149.217 300.746 117.851 300.746 74.808C300.746 31.7645 268.145 0 223.467 0Z" fill="white"/>
</svg>
