<svg width="800" height="800" viewBox="0 0 800 800" fill="none" xmlns="http://www.w3.org/2000/svg">
<g clip-path="url(#clip0_380_1689)">
<path fill-rule="evenodd" clip-rule="evenodd" d="M0.00829706 396.87C-1.42836 621.62 183.908 798.52 397.061 799.99C618.545 801.529 801.775 618.386 799.985 400.607C801.916 180.834 619.585 1.44496 403.469 0.00889234C181.099 -1.46552 1.38953 180.612 0.00829706 396.87ZM499.582 427.727C513.816 430.123 528.258 416.395 529.148 399.863C529.999 384.616 516.016 371.293 500.25 371.216C484.437 370.948 471.327 383.408 470.79 399.216C470.807 414.982 483.603 427.748 499.369 427.727H499.582ZM288.319 560.133C283.885 560.16 279.756 560.184 275.629 560.063C261.212 559.637 255.782 556.076 254.352 542.114C253.278 531.579 253.012 520.969 252.747 510.354C252.559 502.846 252.371 495.335 251.897 487.846C249.769 454.208 246.042 421.08 213.28 399.761C230.156 387.259 242.335 372.527 246.203 352.718C248.918 339.05 250.778 325.225 251.769 311.327C252.22 304.686 252.076 298.003 251.932 291.322C251.773 283.952 251.614 276.585 252.254 269.284C254.212 247.089 255.599 237.957 282.412 238.778C285.1 238.858 287.8 238.594 290.617 238.319C291.965 238.187 293.339 238.053 294.752 237.952V193.918C291.328 193.918 288.031 193.874 284.821 193.831C278.085 193.74 271.731 193.655 265.39 193.995C232.488 195.74 212.569 211.327 207.139 243.412C204.655 258.08 204.068 273.067 203.481 288.057C203.18 295.742 202.879 303.428 202.322 311.072C201.952 322.735 200.701 334.352 198.59 345.829C193.952 366.254 185.212 372.612 164.476 373.633C161.71 373.944 158.961 374.412 156.25 375.046V424.097C194.071 425.961 199.178 439.416 202.207 478.829C202.773 486.238 202.623 493.696 202.472 501.157C202.332 508.12 202.191 515.085 202.633 522.012C203.297 535.565 205.11 549.037 208.059 562.28C216.671 598.297 251.769 610.395 294.378 603.191V560.11C292.282 560.11 290.271 560.122 288.319 560.133ZM303.748 371.216H303.241C287.65 370.442 274.382 382.454 273.607 398.046C272.833 413.637 284.846 426.906 300.437 427.68C301.054 427.71 301.667 427.723 302.284 427.71C317.595 428.591 330.718 416.897 331.599 401.586C331.629 401.076 331.646 400.565 331.646 400.05C331.905 384.382 319.412 371.476 303.748 371.216ZM429.454 399.123C429.365 382.186 417.986 371.084 400.854 371.216C385.897 370.735 373.382 382.472 372.901 397.429C372.876 398.289 372.888 399.148 372.939 400.008C373.033 416.842 384.429 427.791 401.739 427.714C418.761 427.642 429.548 416.514 429.454 399.123ZM636.578 373.582C618.659 372.765 609.786 366.782 605.229 349.761C602.458 338.816 600.773 327.625 600.19 316.348C599.539 306.182 599.257 295.992 598.974 285.801C598.68 275.215 598.387 264.628 597.68 254.067C594.369 204.706 558.731 187.54 507.139 196.106V238.906C509.761 238.906 512.199 238.893 514.514 238.88C519.339 238.855 523.623 238.832 527.897 238.935C538.935 239.208 547.267 243.403 548.45 255.531C549.01 261.265 549.271 267.027 549.532 272.79C549.783 278.317 550.033 283.844 550.548 289.348C551.062 294.783 551.527 300.228 551.991 305.675C553.449 322.765 554.907 339.865 557.905 356.684C561.173 374.982 573.79 388.552 589.505 399.757C562.042 418.144 553.969 444.48 552.646 473.961C552.235 483.155 551.92 492.354 551.604 501.553C551.22 512.76 550.836 523.966 550.28 535.165C549.365 553.727 542.756 559.752 524.067 560.199C520.609 560.282 517.156 560.532 513.501 560.797C511.691 560.928 509.831 561.062 507.897 561.182V605.012C511.356 605.012 514.742 605.063 518.076 605.113C525.207 605.22 532.101 605.324 538.961 604.918C570.242 603.072 589.173 587.944 595.301 557.62C597.927 540.884 599.467 523.995 599.914 507.059C600.356 500.651 600.592 494.224 600.828 487.797C601.161 478.752 601.493 469.708 602.399 460.723C604.824 436.646 615.769 426.795 639.782 425.301C642.05 424.952 644.284 424.416 646.463 423.701V374.663C645.073 374.509 643.815 374.349 642.643 374.199C640.418 373.916 638.5 373.671 636.578 373.582Z" fill="white"/>
</g>
<defs>
<clipPath id="clip0_380_1689">
<rect width="800" height="800" fill="white"/>
</clipPath>
</defs>
</svg>
