<svg width="800" height="800" viewBox="0 0 800 800" fill="none" xmlns="http://www.w3.org/2000/svg">
<path fill-rule="evenodd" clip-rule="evenodd" d="M492.88 40C844.52 280.981 730.8 546.699 730.8 546.699C730.8 546.699 830.8 660.488 790.36 760C790.36 760 749.12 690.312 679.96 690.312C613.28 690.312 574.12 760 439.96 760C141.24 760 0 508.496 0 508.496C269.12 686.924 452.88 560.566 452.88 560.566C331.64 489.63 73.7195 150.391 73.7195 150.391C298.319 343.087 395.4 393.906 395.4 393.906C337.48 345.621 174.96 109.688 174.96 109.688C304.96 242.37 563.28 427.48 563.28 427.48C636.64 222.612 492.88 40 492.88 40Z" fill="white"/>
</svg>
