<svg width="66" height="66" viewBox="0 0 66 66" fill="none" xmlns="http://www.w3.org/2000/svg">
<path fill-rule="evenodd" clip-rule="evenodd" d="M32.9699 65.9398C51.1787 65.9398 65.9398 51.1787 65.9398 32.9699C65.9398 14.7611 51.1787 0 32.9699 0C14.7611 0 0 14.7611 0 32.9699C0 51.1787 14.7611 65.9398 32.9699 65.9398ZM12.2592 31.2356C24.1761 24.4761 44.5697 17.568 44.5697 17.568C44.5697 17.568 46.2369 16.9475 47.2672 17.2084C47.3126 17.2198 47.3559 17.2304 47.3975 17.2406C47.6927 17.3128 47.9047 17.3646 48.1664 17.568C48.5722 17.8834 48.706 18.2874 48.8258 18.707C48.9061 18.9882 48.8007 19.746 48.6846 20.5814C48.6274 20.9927 48.5676 21.4228 48.5261 21.8242C47.5322 31.4252 44.5697 46.2219 44.5697 46.2219C44.5697 46.2219 44.3 47.4947 43.7304 48.0203C43.3762 48.3471 43.1136 48.4826 42.6514 48.6197C42.0455 48.7995 41.5245 48.8538 41.0329 48.6197L39.7741 48.0203L28.3245 40.2274C28.3245 40.2274 27.4439 39.7112 27.3054 39.1483C27.2387 38.8773 27.2638 38.709 27.3046 38.4343L27.3054 38.429C27.3632 38.0405 27.474 37.8311 27.6551 37.4889L27.6651 37.4699C27.9987 36.8391 28.864 36.0911 28.864 36.0911L39.2945 26.1402C39.2945 26.1402 39.622 25.7404 39.5343 25.4808C39.4863 25.3388 39.4156 25.2694 39.2945 25.1811C39.1016 25.0405 38.9329 25.0404 38.695 25.0612C38.4133 25.0859 38.0356 25.3609 38.0356 25.3609C38.0356 25.3609 29.2013 32.9265 22.4499 35.7315C22.2977 35.7947 22.1695 35.8563 22.0488 35.9144C21.8 36.034 21.5826 36.1385 21.251 36.211C20.7816 36.3137 20.4503 36.2836 20.049 36.2472C19.9028 36.234 19.7473 36.2199 19.5725 36.211C17.0661 36.0844 15.6588 35.6077 13.3382 34.6525C13.1072 34.5574 12.8952 34.49 12.6954 34.4265C12.2334 34.2796 11.8364 34.1534 11.4199 33.7533C11.3637 33.6992 11.3088 33.6505 11.2565 33.6039C11.0514 33.4214 10.8846 33.2731 10.8205 32.974C10.7812 32.7909 10.7812 32.6775 10.8205 32.4944C10.8912 32.1646 11.0767 32.0072 11.3172 31.803C11.3504 31.7748 11.3847 31.7457 11.4199 31.7151C11.6061 31.5534 11.7671 31.4778 11.9479 31.3929C12.0438 31.3478 12.1453 31.3001 12.2592 31.2356Z" fill="#3192FF"/>
</svg>
