<svg width="65" height="66" viewBox="0 0 65 66" fill="none" xmlns="http://www.w3.org/2000/svg">
<path fill-rule="evenodd" clip-rule="evenodd" d="M5.46026 8.06531C5.69133 8.41809 6.58199 7.96708 7.84672 7.32666C9.92362 6.27497 13.0093 4.71247 15.8393 5.35987C20.6331 6.45772 25.1762 14.0098 27.1256 37.1558C20.4001 31.5955 14.4684 29.5219 10.596 28.4903C5.76769 27.204 0.354475 26.7659 0.0165863 27.8075C-0.142716 28.2993 0.858583 28.8217 2.45633 29.6553C5.13563 31.0532 9.49218 33.3261 12.8657 37.7974C16.1796 42.7715 18.1533 48.5169 18.5958 54.4774C19.1117 58.0416 19.2484 61.6503 19.0036 65.2433H36.3802L36.3804 65.2477L51.66 65.2431C50.9143 59.2613 50.616 54.151 50.4948 50.2152C50.2758 42.6837 50.7278 39.6334 52.5921 36.8021L52.5961 36.7959C53.0569 36.0916 55.6024 32.2006 58.6042 32.4608C61.0967 32.6785 62.6973 35.5732 63.5155 37.0529C63.8187 37.6012 64.0144 37.9552 64.1083 37.9067C64.5161 37.6969 63.2694 29.6505 58.208 27.5813C53.3625 25.6002 46.8597 29.8731 42.6759 35.3399C42.7494 35.2342 42.8235 35.129 42.8984 35.0242C42.1586 27.3733 39.4551 20.0432 35.05 13.7442L35.0215 13.7042C32.5847 10.2853 24.2948 -1.34551 15.1355 0.128411C9.20733 1.07916 4.82176 7.11223 5.46026 8.06531ZM35.1155 45.0235C35.115 45.9686 34.7869 46.8842 34.187 47.6145C33.5871 48.3447 32.7526 48.8444 31.8256 49.0283C30.8986 49.2122 29.9366 49.0691 29.1033 48.6232C28.27 48.1773 27.6171 47.4564 27.2559 46.5831C26.8946 45.7098 26.8473 44.7383 27.122 43.834C27.3967 42.9298 27.9764 42.1488 28.7624 41.624C29.5484 41.0993 30.492 40.8633 31.4325 40.9563C32.3729 41.0493 33.2521 41.4655 33.9201 42.134C34.2999 42.5131 34.601 42.9636 34.8061 43.4595C35.0113 43.9553 35.1164 44.4869 35.1155 45.0235ZM45.0801 47.6145C45.6799 46.8842 46.0081 45.9686 46.0086 45.0235C46.0095 44.4869 45.9043 43.9553 45.6992 43.4595C45.494 42.9636 45.1929 42.5131 44.8131 42.134C44.1451 41.4655 43.266 41.0493 42.3255 40.9563C41.3851 40.8633 40.4414 41.0993 39.6555 41.624C38.8695 42.1488 38.2897 42.9298 38.015 43.834C37.7403 44.7383 37.7876 45.7098 38.1489 46.5831C38.5102 47.4564 39.1631 48.1773 39.9963 48.6232C40.8296 49.0691 41.7917 49.2122 42.7187 49.0283C43.6456 48.8444 44.4802 48.3447 45.0801 47.6145Z" fill="white"/>
</svg>
