<svg width="434" height="242" viewBox="0 0 434 242" fill="none" xmlns="http://www.w3.org/2000/svg">
<path d="M18.1097 194V48.5455H35.7234V178.375H103.337V194H18.1097ZM203.87 84.9091L163.529 194H146.483L106.142 84.9091H124.324L154.438 171.841H155.574L185.688 84.9091H203.87ZM266.405 196.273C256.557 196.273 247.916 193.929 240.482 189.241C233.096 184.554 227.319 177.996 223.152 169.568C219.033 161.14 216.973 151.292 216.973 140.023C216.973 128.659 219.033 118.74 223.152 110.264C227.319 101.789 233.096 95.2074 240.482 90.5199C247.916 85.8324 256.557 83.4886 266.405 83.4886C276.254 83.4886 284.871 85.8324 292.257 90.5199C299.691 95.2074 305.468 101.789 309.587 110.264C313.754 118.74 315.837 128.659 315.837 140.023C315.837 151.292 313.754 161.14 309.587 169.568C305.468 177.996 299.691 184.554 292.257 189.241C284.871 193.929 276.254 196.273 266.405 196.273ZM266.405 181.216C273.886 181.216 280.042 179.298 284.871 175.463C289.701 171.628 293.275 166.585 295.596 160.335C297.916 154.085 299.076 147.314 299.076 140.023C299.076 132.731 297.916 125.937 295.596 119.639C293.275 113.342 289.701 108.252 284.871 104.369C280.042 100.487 273.886 98.5455 266.405 98.5455C258.924 98.5455 252.769 100.487 247.939 104.369C243.11 108.252 239.535 113.342 237.215 119.639C234.895 125.937 233.735 132.731 233.735 140.023C233.735 147.314 234.895 154.085 237.215 160.335C239.535 166.585 243.11 171.628 247.939 175.463C252.769 179.298 258.924 181.216 266.405 181.216ZM426.721 84.9091L386.38 194H369.335L328.994 84.9091H347.176L377.289 171.841H378.426L408.539 84.9091H426.721Z" fill="#7E7E7E"/>
<path d="M265.004 119.714C265.117 118.504 266.883 118.504 266.996 119.714L268.498 135.884C268.542 136.357 268.913 136.734 269.385 136.786L284.986 138.506C286.173 138.637 286.173 140.363 284.986 140.494L269.385 142.214C268.913 142.266 268.542 142.643 268.498 143.116L266.996 159.286C266.883 160.496 265.117 160.496 265.004 159.286L263.502 143.116C263.458 142.643 263.087 142.266 262.615 142.214L247.014 140.494C245.827 140.363 245.827 138.637 247.014 138.506L262.615 136.786C263.087 136.734 263.458 136.357 263.502 135.884L265.004 119.714Z" fill="#7E7E7E"/>
</svg>
