<svg width="434" height="242" viewBox="0 0 434 242" fill="none" xmlns="http://www.w3.org/2000/svg">
<path d="M18.1097 194V48.5455H35.7234V178.375H103.337V194H18.1097ZM203.87 84.9091L163.529 194H146.483L106.142 84.9091H124.324L154.438 171.841H155.574L185.688 84.9091H203.87ZM266.405 196.273C256.557 196.273 247.916 193.929 240.482 189.241C233.096 184.554 227.319 177.996 223.152 169.568C219.033 161.14 216.973 151.292 216.973 140.023C216.973 128.659 219.033 118.74 223.152 110.264C227.319 101.789 233.096 95.2074 240.482 90.5199C247.916 85.8324 256.557 83.4886 266.405 83.4886C276.254 83.4886 284.871 85.8324 292.257 90.5199C299.691 95.2074 305.468 101.789 309.587 110.264C313.754 118.74 315.837 128.659 315.837 140.023C315.837 151.292 313.754 161.14 309.587 169.568C305.468 177.996 299.691 184.554 292.257 189.241C284.871 193.929 276.254 196.273 266.405 196.273ZM266.405 181.216C273.886 181.216 280.042 179.298 284.871 175.463C289.701 171.628 293.275 166.585 295.596 160.335C297.916 154.085 299.076 147.314 299.076 140.023C299.076 132.731 297.916 125.937 295.596 119.639C293.275 113.342 289.701 108.252 284.871 104.369C280.042 100.487 273.886 98.5455 266.405 98.5455C258.924 98.5455 252.769 100.487 247.939 104.369C243.11 108.252 239.535 113.342 237.215 119.639C234.895 125.937 233.735 132.731 233.735 140.023C233.735 147.314 234.895 154.085 237.215 160.335C239.535 166.585 243.11 171.628 247.939 175.463C252.769 179.298 258.924 181.216 266.405 181.216ZM426.721 84.9091L386.38 194H369.335L328.994 84.9091H347.176L377.289 171.841H378.426L408.539 84.9091H426.721Z" fill="white"/>
<path d="M265.503 111.27C265.603 110.044 267.397 110.044 267.497 111.27L269.422 134.968C269.46 135.439 269.824 135.82 270.293 135.879L291.135 138.508C292.302 138.655 292.302 140.345 291.135 140.492L270.293 143.121C269.824 143.18 269.46 143.561 269.422 144.032L267.497 167.73C267.397 168.956 265.603 168.956 265.503 167.73L263.578 144.032C263.54 143.561 263.176 143.18 262.707 143.121L241.865 140.492C240.698 140.345 240.698 138.655 241.865 138.508L262.707 135.879C263.176 135.82 263.54 135.439 263.578 134.968L265.503 111.27Z" fill="#3192FF"/>
</svg>
